o tetrahedron
v 0.0 0.0 1.0
v 0.0 1.0 1.0
v 1.0 0.0 1.0
v 0.0 0.0 2.0
vn 0.0 0.0 -1.0
vn -1.0 0.0 0.0
vn 0.0 -1.0 0.0
vn 1.0 1.0 1.0
s off
f 1//1 2//1 3//1
f 2//2 1//2 4//2
f 1//3 3//3 4//3
f 3//4 2//4 4//4

o cube
v 0.5 0.5 0.5
v 0.5 -0.5 0.5
v 0.5 -0.5 -0.5
v 0.5 0.5 -0.5
v -0.5 0.5 0.5
v -0.5 0.5 -0.5
v -0.5 -0.5 -0.5
v -0.5 -0.5 0.5
vn 1.0 0.0 0.0
vn -1.0 0.0 0.0
vn 0.0 1.0 0.0
vn 0.0 -1.0 0.0
vn 0.0 0.0 1.0
vn 0.0 0.0 -1.0
s off
f 5//5 6//5 7//5
f 5//5 7//5 8//5
f 9//6 10//6 11//6
f 9//6 11//6 12//6
f 5//7 8//7 10//7
f 5//7 10//7 9//7
f 6//8 12//8 11//8
f 6//8 11//8 7//8
f 5//9 9//9 12//9
f 5//9 12//9 6//9
f 8//10 7//10 11//10
f 8//10 11//10 10//10

