solid cube
  facet normal 1.0 0.0 0.0
    outer loop
      vertex 0.5 0.5 0.5
      vertex 0.5 -0.5 0.5
      vertex 0.5 -0.5 -0.5
    endloop
  endfacet
  facet normal 1.0 0.0 0.0
    outer loop
      vertex 0.5 0.5 0.5
      vertex 0.5 -0.5 -0.5
      vertex 0.5 0.5 -0.5
    endloop
  endfacet
  facet normal -1.0 0.0 0.0
    outer loop
      vertex -0.5 0.5 0.5
      vertex -0.5 0.5 -0.5
      vertex -0.5 -0.5 -0.5
    endloop
  endfacet
  facet normal -1.0 0.0 0.0
    outer loop
      vertex -0.5 0.5 0.5
      vertex -0.5 -0.5 -0.5
      vertex -0.5 -0.5 0.5
    endloop
  endfacet
  facet normal 0.0 1.0 0.0
    outer loop
      vertex 0.5 0.5 0.5
      vertex 0.5 0.5 -0.5
      vertex -0.5 0.5 -0.5
    endloop
  endfacet
  facet normal 0.0 1.0 0.0
    outer loop
      vertex 0.5 0.5 0.5
      vertex -0.5 0.5 -0.5
      vertex -0.5 0.5 0.5
    endloop
  endfacet
  facet normal 0.0 -1.0 0.0
    outer loop
      vertex 0.5 -0.5 0.5
      vertex -0.5 -0.5 0.5
      vertex -0.5 -0.5 -0.5
    endloop
  endfacet
  facet normal 0.0 -1.0 0.0
    outer loop
      vertex 0.5 -0.5 0.5
      vertex -0.5 -0.5 -0.5
      vertex 0.5 -0.5 -0.5
    endloop
  endfacet
  facet normal 0.0 0.0 1.0
    outer loop
      vertex 0.5 0.5 0.5
      vertex -0.5 0.5 0.5
      vertex -0.5 -0.5 0.5
    endloop
  endfacet
  facet normal 0.0 0.0 1.0
    outer loop
      vertex 0.5 0.5 0.5
      vertex -0.5 -0.5 0.5
      vertex 0.5 -0.5 0.5
    endloop
  endfacet
  facet normal 0.0 0.0 -1.0
    outer loop
      vertex 0.5 0.5 -0.5
      vertex 0.5 -0.5 -0.5
      vertex -0.5 -0.5 -0.5
    endloop
  endfacet
  facet normal 0.0 0.0 -1.0
    outer loop
      vertex 0.5 0.5 -0.5
      vertex -0.5 -0.5 -0.5
      vertex -0.5 0.5 -0.5
    endloop
  endfacet
endsolid cube
solid tetrahedron
  facet normal 0.0 0.0 -1.0
    outer loop
      vertex 0.0 0.0 1.0
      vertex 0.0 1.0 1.0
      vertex 1.0 0.0 1.0
    endloop
  endfacet
  facet normal -1.0 0.0 0.0
    outer loop
      vertex 0.0 1.0 1.0
      vertex 0.0 0.0 1.0
      vertex 0.0 0.0 2.0
    endloop
  endfacet
  facet normal 0.0 -1.0 0.0
    outer loop
      vertex 0.0 0.0 1.0
      vertex 1.0 0.0 1.0
      vertex 0.0 0.0 2.0
    endloop
  endfacet
  facet normal 1.0 1.0 1.0
    outer loop
      vertex 1.0 0.0 1.0
      vertex 0.0 1.0 1.0
      vertex 0.0 0.0 2.0
    endloop
  endfacet
endsolid tetrahedron
